<?xml version="1.0" encoding="utf-8"?>
<!-- Generator: Adobe Illustrator 16.0.0, SVG Export Plug-In . SVG Version: 6.00 Build 0)  -->
<!DOCTYPE svg PUBLIC "-//W3C//DTD SVG 1.1//EN" "http://www.w3.org/Graphics/SVG/1.1/DTD/svg11.dtd">
<svg version="1.1" id="Layer_1" xmlns="http://www.w3.org/2000/svg" xmlns:xlink="http://www.w3.org/1999/xlink" x="0px" y="0px"
	 width="800px" height="100px" viewBox="0 0 800 100" enable-background="new 0 0 800 100" xml:space="preserve">
<path fill="#5B9632" d="M800,60H608c-13.75,0-32.954-7.956-42.676-17.679l-24.514-24.517c-9.722-9.724-28.926-17.679-42.676-17.679
	H199.364c-13.75,0-32.954,7.956-42.676,17.679l-24.512,24.517C122.454,52.044,103.25,60,89.5,60H0v40h89.5
	c13.75,0,32.949-7.961,42.664-17.691l54.532-54.617C196.41,17.961,215.609,10,229.359,10h238.783
	c13.75,0,32.948,7.961,42.664,17.691l54.53,54.617C575.052,92.039,594.25,100,608,100h192V60z"/>
<path fill="#FFFFFF" d="M800,60H608c-13.75,0-32.953-7.956-42.676-17.68l-24.514-24.517c-9.721-9.723-28.926-17.679-42.676-17.679
	H199.364c-13.75,0-32.954,7.956-42.676,17.679L132.176,42.32C122.454,52.044,103.25,60,89.5,60H0V0.125L800,0V60z"/>
</svg>
