<?xml version="1.0" encoding="utf-8"?>
<!-- Generator: Adobe Illustrator 16.0.0, SVG Export Plug-In . SVG Version: 6.00 Build 0)  -->
<!DOCTYPE svg PUBLIC "-//W3C//DTD SVG 1.1//EN" "http://www.w3.org/Graphics/SVG/1.1/DTD/svg11.dtd">
<svg version="1.1" id="Layer_2_copy" xmlns="http://www.w3.org/2000/svg" xmlns:xlink="http://www.w3.org/1999/xlink" x="0px"
	 y="0px" width="800px" height="100px" viewBox="0 0 800 100" enable-background="new 0 0 800 100" xml:space="preserve">
<path opacity="0.6" fill="#5B9632" d="M800,79.75h-18.328c-13.75,0-32.954-7.956-42.676-17.68l-24.514-24.516
	c-9.722-9.725-28.926-17.68-42.676-17.68H559.7c-13.75,0-32.954,7.955-42.677,17.68L492.512,62.07
	c-9.722,9.724-28.926,17.68-42.676,17.68h-28.5c-13.75,0-32.954-7.956-42.676-17.68l-24.514-24.516
	c-9.722-9.724-28.926-17.679-42.676-17.679H129.364c-13.75,0-32.954,7.956-42.676,17.679L62.176,62.07
	C52.454,71.794,33.25,79.75,19.5,79.75H0v8.846h31.168c13.75,0,32.949-7.961,42.664-17.691l23.695-23.463
	c9.715-9.73,28.914-17.691,42.664-17.691h93.807c13.75,0,32.948,7.961,42.664,17.691l23.194,23.463
	c9.716,9.73,28.914,17.691,42.664,17.691h78.816h40.168c13.75,0,32.949-7.961,42.664-17.691l23.695-23.463
	c9.715-9.73,28.914-17.691,42.664-17.691h23.806c13.75,0,32.948,7.961,42.664,17.691l23.194,23.463
	c9.716,9.73,28.914,17.691,42.664,17.691H800V79.75z"/>
<path opacity="0" fill="#FFFFFF" d="M800,79.75h-18.328c-13.75,0-32.954-7.956-42.676-17.68l-24.514-24.516
	c-9.722-9.725-28.926-17.68-42.676-17.68H559.7c-13.75,0-32.954,7.955-42.677,17.68L492.512,62.07
	c-9.722,9.724-28.926,17.68-42.676,17.68h-28.5c-13.75,0-32.954-7.956-42.676-17.68l-24.514-24.516
	c-9.722-9.725-28.926-17.68-42.676-17.68H129.364c-13.75,0-32.954,7.955-42.676,17.68L62.176,62.07
	C52.454,71.794,33.25,79.75,19.5,79.75H0V0.125h800V79.75z"/>
</svg>
