<?xml version="1.0" encoding="utf-8"?>
<!-- Generator: Adobe Illustrator 16.0.0, SVG Export Plug-In . SVG Version: 6.00 Build 0)  -->
<!DOCTYPE svg PUBLIC "-//W3C//DTD SVG 1.1//EN" "http://www.w3.org/Graphics/SVG/1.1/DTD/svg11.dtd">
<svg version="1.1" id="Layer_2" xmlns="http://www.w3.org/2000/svg" xmlns:xlink="http://www.w3.org/1999/xlink" x="0px" y="0px"
	 width="800px" height="100px" viewBox="0 0 800 100" enable-background="new 0 0 800 100" xml:space="preserve">
<path opacity="0.6" fill="#5B9632" d="M800,60h-18.328c-13.75,0-32.954-7.956-42.676-17.68l-24.514-24.516
	c-9.722-9.725-28.926-17.68-42.676-17.68H559.7c-13.75,0-32.954,7.955-42.677,17.68L492.512,42.32
	C482.79,52.044,463.586,60,449.836,60h-28.5c-13.75,0-32.954-7.956-42.676-17.679l-24.514-24.517
	c-9.722-9.724-28.926-17.679-42.676-17.679H199.364c-13.75,0-32.954,7.956-42.676,17.679l-24.512,24.517
	C122.454,52.044,103.25,60,89.5,60H0v8.846h120.336c13.75,0,32.949-7.961,42.664-17.691l23.695-23.463
	C196.41,17.961,215.609,10,229.359,10h52.119c13.75,0,32.948,7.961,42.664,17.691l23.194,23.463
	c9.716,9.73,28.914,17.691,42.664,17.691h31.336h59.336c13.75,0,32.949-7.961,42.664-17.691l23.695-23.463
	C556.746,17.961,575.945,10,589.695,10h52.118c13.75,0,32.948,7.961,42.664,17.691l23.194,23.463
	c9.716,9.73,28.914,17.691,42.664,17.691H800V60z"/>
<path fill="#FFFFFF" d="M800,60h-18.328c-13.75,0-32.954-7.956-42.676-17.68l-24.514-24.516c-9.722-9.725-28.926-17.68-42.676-17.68
	H559.7c-13.75,0-32.954,7.955-42.677,17.68L492.512,42.32C482.79,52.044,463.586,60,449.836,60h-28.5
	c-13.75,0-32.954-7.956-42.676-17.68l-24.514-24.516c-9.722-9.725-28.926-17.68-42.676-17.68H199.364
	c-13.75,0-32.954,7.955-42.676,17.68L132.176,42.32C122.454,52.044,103.25,60,89.5,60H0V0.125L800,0V60z"/>
</svg>
